<?xml version="1.0" encoding="UTF-8" standalone="no"?><svg xmlns="http://www.w3.org/2000/svg" xmlns:xlink="http://www.w3.org/1999/xlink" clip-rule="evenodd" stroke-miterlimit="10" viewBox="0 0 1920 1080"><desc>SVG generated by Keynote</desc><defs></defs><g transform="matrix(1.00, 0.00, -0.00, -1.00, 0.0, 1080.0)"><path d="M 0.0 1080.0 L 1920.0 1080.0 L 1920.0 0.0 L 0.0 0.0 Z M 0.0 1080.0 " fill="#FEFFFF"></path><image xlink:href="../../45D36621-484C-4026-80EC-FDBD73C2A2AB/assets/4FD83C0E37D7C6A50BBEB9033B100801.png" width="1926.00" height="117.00" transform="matrix(1.00, 0.00, -0.00, -1.00, -3.0, 109.1)" opacity="0.50"></image><path d="M 0.0 108.0 L 1920.0 108.0 L 1920.0 -3.0 L 0.0 -3.0 Z M -0.0 108.1 " fill="#000000"></path><image xlink:href="../../45D36621-484C-4026-80EC-FDBD73C2A2AB/assets/BF37858F8C0EE944DDC864159C745544.png" width="2003.00" height="461.00" transform="matrix(0.12, 0.00, -0.00, -0.12, 33.0, 81.0)"></image><g><clipPath id="clip0x6080020a3180"><path d="M 1689.7 28.6 L 1862.2 28.6 L 1862.2 76.6 L 1689.7 76.6 Z M 1689.7 28.6 "></path></clipPath><g clip-path="url(#clip0x6080020a3180)"><text xml:space="preserve" font-family="Helvetica-Light,Helvetica" font-size="28.0" fill="#FEFFFE" transform="matrix(1.00, 0.00, -0.00, -1.00, 1699.4, 42.0)">@</text><text xml:space="preserve" font-family="Helvetica-Light,Helvetica" font-size="28.0" fill="#FEFFFE" transform="matrix(1.00, 0.00, -0.00, -1.00, 1721.8, 42.0)">t</text><text xml:space="preserve" font-family="Helvetica-Light,Helvetica" font-size="28.0" fill="#FEFFFE" transform="matrix(1.00, 0.00, -0.00, -1.00, 1729.6, 42.0)">o</text><text xml:space="preserve" font-family="Helvetica-Light,Helvetica" font-size="28.0" fill="#FEFFFE" transform="matrix(1.00, 0.00, -0.00, -1.00, 1745.1, 42.0)">m</text><text xml:space="preserve" font-family="Helvetica-Light,Helvetica" font-size="28.0" fill="#FEFFFE" transform="matrix(1.00, 0.00, -0.00, -1.00, 1768.5, 42.0)">p</text><text xml:space="preserve" font-family="Helvetica-Light,Helvetica" font-size="28.0" fill="#FEFFFE" transform="matrix(1.00, 0.00, -0.00, -1.00, 1785.6, 42.0)">a</text><text xml:space="preserve" font-family="Helvetica-Light,Helvetica" font-size="28.0" fill="#FEFFFE" transform="matrix(1.00, 0.00, -0.00, -1.00, 1801.1, 42.0)">u</text><text xml:space="preserve" font-family="Helvetica-Light,Helvetica" font-size="28.0" fill="#FEFFFE" transform="matrix(1.00, 0.00, -0.00, -1.00, 1816.7, 42.0)">l</text><text xml:space="preserve" font-family="Helvetica-Light,Helvetica" font-size="28.0" fill="#FEFFFE" transform="matrix(1.00, 0.00, -0.00, -1.00, 1822.9, 42.0)">u</text><text xml:space="preserve" font-family="Helvetica-Light,Helvetica" font-size="28.0" fill="#FEFFFE" transform="matrix(1.00, 0.00, -0.00, -1.00, 1838.5, 42.0)">s</text></g></g><g><clipPath id="clip0x6080020a3e40"><path d="M 1630.6 30.1 L 1686.0 30.1 L 1686.0 75.1 L 1630.6 75.1 Z M 1630.6 30.1 "></path></clipPath><g clip-path="url(#clip0x6080020a3e40)"><image xlink:href="../../45D36621-484C-4026-80EC-FDBD73C2A2AB/assets/E681C0CCD05D9D5C97169BC7675B8667.png" width="1139.00" height="926.00" transform="matrix(0.05, 0.00, -0.00, -0.05, 1631.0, 75.0)"></image></g></g><image xlink:href="../../B13273DD-9F7D-468E-9797-C0E73F63BC77/assets/2C734E492260F362B336FD5ADA055125.png" width="300.00" height="84.00" transform="matrix(1.11, 0.00, -0.00, -1.11, 29.0, 1045.0)"></image><image xlink:href="4D09830E39CA33F7703786113D5E3E11.png" width="1202.00" height="779.00" transform="matrix(1.00, 0.00, -0.00, -1.00, 454.5, 986.6)" opacity="0.50"></image><image xlink:href="7969704C7255F01B462D22DFC471FB70.png" width="938.00" height="606.00" transform="matrix(1.27, 0.00, -0.00, -1.27, 459.0, 985.0)"></image><path d="M 1452.0 494.0 L 1555.0 494.0 L 1555.0 448.0 L 1452.0 448.0 Z M 1452.2 493.6 " fill="#F0F0F0"></path></g></svg>