<?xml version="1.0" encoding="UTF-8" standalone="no"?><svg xmlns="http://www.w3.org/2000/svg" xmlns:xlink="http://www.w3.org/1999/xlink" clip-rule="evenodd" stroke-miterlimit="10" viewBox="0 0 1920 1080"><desc>SVG generated by Keynote</desc><defs></defs><g transform="matrix(1.00, 0.00, -0.00, -1.00, 0.0, 1080.0)"><path d="M 0.0 1080.0 L 1920.0 1080.0 L 1920.0 0.0 L 0.0 0.0 Z M 0.0 1080.0 " fill="#FEFFFF"></path><image xlink:href="4FD83C0E37D7C6A50BBEB9033B100801.png" width="1926.00" height="117.00" transform="matrix(1.00, 0.00, -0.00, -1.00, -3.0, 109.1)" opacity="0.50"></image><path d="M 0.0 108.0 L 1920.0 108.0 L 1920.0 -3.0 L 0.0 -3.0 Z M -0.0 108.1 " fill="#000000"></path><image xlink:href="BF37858F8C0EE944DDC864159C745544.png" width="2003.00" height="461.00" transform="matrix(0.12, 0.00, -0.00, -0.12, 33.0, 81.0)"></image><g><clipPath id="clip0x6080018a3540"><path d="M 1689.7 28.6 L 1862.2 28.6 L 1862.2 76.6 L 1689.7 76.6 Z M 1689.7 28.6 "></path></clipPath><g clip-path="url(#clip0x6080018a3540)"><text xml:space="preserve" font-family="Helvetica-Light,Helvetica" font-size="28.0" fill="#FEFFFE" transform="matrix(1.00, 0.00, -0.00, -1.00, 1699.4, 42.0)">@</text><text xml:space="preserve" font-family="Helvetica-Light,Helvetica" font-size="28.0" fill="#FEFFFE" transform="matrix(1.00, 0.00, -0.00, -1.00, 1721.8, 42.0)">t</text><text xml:space="preserve" font-family="Helvetica-Light,Helvetica" font-size="28.0" fill="#FEFFFE" transform="matrix(1.00, 0.00, -0.00, -1.00, 1729.6, 42.0)">o</text><text xml:space="preserve" font-family="Helvetica-Light,Helvetica" font-size="28.0" fill="#FEFFFE" transform="matrix(1.00, 0.00, -0.00, -1.00, 1745.1, 42.0)">m</text><text xml:space="preserve" font-family="Helvetica-Light,Helvetica" font-size="28.0" fill="#FEFFFE" transform="matrix(1.00, 0.00, -0.00, -1.00, 1768.5, 42.0)">p</text><text xml:space="preserve" font-family="Helvetica-Light,Helvetica" font-size="28.0" fill="#FEFFFE" transform="matrix(1.00, 0.00, -0.00, -1.00, 1785.6, 42.0)">a</text><text xml:space="preserve" font-family="Helvetica-Light,Helvetica" font-size="28.0" fill="#FEFFFE" transform="matrix(1.00, 0.00, -0.00, -1.00, 1801.1, 42.0)">u</text><text xml:space="preserve" font-family="Helvetica-Light,Helvetica" font-size="28.0" fill="#FEFFFE" transform="matrix(1.00, 0.00, -0.00, -1.00, 1816.7, 42.0)">l</text><text xml:space="preserve" font-family="Helvetica-Light,Helvetica" font-size="28.0" fill="#FEFFFE" transform="matrix(1.00, 0.00, -0.00, -1.00, 1822.9, 42.0)">u</text><text xml:space="preserve" font-family="Helvetica-Light,Helvetica" font-size="28.0" fill="#FEFFFE" transform="matrix(1.00, 0.00, -0.00, -1.00, 1838.5, 42.0)">s</text></g></g><g><clipPath id="clip0x608001ab7880"><path d="M 1630.6 30.1 L 1686.0 30.1 L 1686.0 75.1 L 1630.6 75.1 Z M 1630.6 30.1 "></path></clipPath><g clip-path="url(#clip0x608001ab7880)"><image xlink:href="E681C0CCD05D9D5C97169BC7675B8667.png" width="1139.00" height="926.00" transform="matrix(0.05, 0.00, -0.00, -0.05, 1631.0, 75.0)"></image></g></g><image xlink:href="216B83A34DF31185A4C6DEC68E26C611.png" width="600.00" height="132.00" transform="matrix(1.41, 0.00, -0.00, -1.40, 538.0, 687.0)"></image><text xml:space="preserve" font-family="HelveticaNeue-Light,Helvetica Neue" font-size="46.0" fill="#000000" transform="matrix(1.00, 0.00, -0.00, -1.00, 466.2, 408.2)">P</text><text xml:space="preserve" font-family="HelveticaNeue-Light,Helvetica Neue" font-size="46.0" fill="#000000" transform="matrix(1.00, 0.00, -0.00, -1.00, 495.2, 408.2)">r</text><text xml:space="preserve" font-family="HelveticaNeue-Light,Helvetica Neue" font-size="46.0" fill="#000000" transform="matrix(1.00, 0.00, -0.00, -1.00, 509.7, 408.2)">a</text><text xml:space="preserve" font-family="HelveticaNeue-Light,Helvetica Neue" font-size="46.0" fill="#000000" transform="matrix(1.00, 0.00, -0.00, -1.00, 533.6, 408.2)">n</text><text xml:space="preserve" font-family="HelveticaNeue-Light,Helvetica Neue" font-size="46.0" fill="#000000" transform="matrix(1.00, 0.00, -0.00, -1.00, 558.3, 408.2)">k</text><text xml:space="preserve" font-family="HelveticaNeue-Light,Helvetica Neue" font-size="46.0" fill="#000000" transform="matrix(1.00, 0.00, -0.00, -1.00, 581.3, 408.2)"> </text><text xml:space="preserve" font-family="HelveticaNeue-Light,Helvetica Neue" font-size="46.0" fill="#000000" transform="matrix(1.00, 0.00, -0.00, -1.00, 594.0, 408.2)">C</text><text xml:space="preserve" font-family="HelveticaNeue-Light,Helvetica Neue" font-size="46.0" fill="#000000" transform="matrix(1.00, 0.00, -0.00, -1.00, 626.4, 408.2)">a</text><text xml:space="preserve" font-family="HelveticaNeue-Light,Helvetica Neue" font-size="46.0" fill="#000000" transform="matrix(1.00, 0.00, -0.00, -1.00, 650.3, 408.2)">l</text><text xml:space="preserve" font-family="HelveticaNeue-Light,Helvetica Neue" font-size="46.0" fill="#000000" transform="matrix(1.00, 0.00, -0.00, -1.00, 658.8, 408.2)">l</text><text xml:space="preserve" font-family="HelveticaNeue-Light,Helvetica Neue" font-size="46.0" fill="#000000" transform="matrix(1.00, 0.00, -0.00, -1.00, 667.3, 408.2)">i</text><text xml:space="preserve" font-family="HelveticaNeue-Light,Helvetica Neue" font-size="46.0" fill="#000000" transform="matrix(1.00, 0.00, -0.00, -1.00, 675.8, 408.2)">n</text><text xml:space="preserve" font-family="HelveticaNeue-Light,Helvetica Neue" font-size="46.0" fill="#000000" transform="matrix(1.00, 0.00, -0.00, -1.00, 700.5, 408.2)">g</text><text xml:space="preserve" font-family="HelveticaNeue-Light,Helvetica Neue" font-size="46.0" fill="#000000" transform="matrix(1.00, 0.00, -0.00, -1.00, 726.1, 408.2)"> </text><text xml:space="preserve" font-family="HelveticaNeue-Light,Helvetica Neue" font-size="46.0" fill="#000000" transform="matrix(1.00, 0.00, -0.00, -1.00, 738.9, 408.2)">Y</text><text xml:space="preserve" font-family="HelveticaNeue-Light,Helvetica Neue" font-size="46.0" fill="#000000" transform="matrix(1.00, 0.00, -0.00, -1.00, 762.8, 408.2)">o</text><text xml:space="preserve" font-family="HelveticaNeue-Light,Helvetica Neue" font-size="46.0" fill="#000000" transform="matrix(1.00, 0.00, -0.00, -1.00, 788.4, 408.2)">u</text><text xml:space="preserve" font-family="HelveticaNeue-Light,Helvetica Neue" font-size="46.0" fill="#000000" transform="matrix(1.00, 0.00, -0.00, -1.00, 813.1, 408.2)">r</text><text xml:space="preserve" font-family="HelveticaNeue-Light,Helvetica Neue" font-size="46.0" fill="#000000" transform="matrix(1.00, 0.00, -0.00, -1.00, 827.5, 408.2)"> </text><text xml:space="preserve" font-family="HelveticaNeue-Light,Helvetica Neue" font-size="46.0" fill="#000000" transform="matrix(1.00, 0.00, -0.00, -1.00, 840.3, 408.2)">F</text><text xml:space="preserve" font-family="HelveticaNeue-Light,Helvetica Neue" font-size="46.0" fill="#000000" transform="matrix(1.00, 0.00, -0.00, -1.00, 865.0, 408.2)">r</text><text xml:space="preserve" font-family="HelveticaNeue-Light,Helvetica Neue" font-size="46.0" fill="#000000" transform="matrix(1.00, 0.00, -0.00, -1.00, 879.5, 408.2)">i</text><text xml:space="preserve" font-family="HelveticaNeue-Light,Helvetica Neue" font-size="46.0" fill="#000000" transform="matrix(1.00, 0.00, -0.00, -1.00, 888.0, 408.2)">e</text><text xml:space="preserve" font-family="HelveticaNeue-Light,Helvetica Neue" font-size="46.0" fill="#000000" transform="matrix(1.00, 0.00, -0.00, -1.00, 911.9, 408.2)">n</text><text xml:space="preserve" font-family="HelveticaNeue-Light,Helvetica Neue" font-size="46.0" fill="#000000" transform="matrix(1.00, 0.00, -0.00, -1.00, 936.6, 408.2)">d</text><text xml:space="preserve" font-family="HelveticaNeue-Light,Helvetica Neue" font-size="46.0" fill="#000000" transform="matrix(1.00, 0.00, -0.00, -1.00, 963.0, 408.2)">s</text><text xml:space="preserve" font-family="HelveticaNeue-Light,Helvetica Neue" font-size="46.0" fill="#000000" transform="matrix(1.00, 0.00, -0.00, -1.00, 985.1, 408.2)"> </text><text xml:space="preserve" font-family="HelveticaNeue-Light,Helvetica Neue" font-size="46.0" fill="#000000" transform="matrix(1.00, 0.00, -0.00, -1.00, 997.9, 408.2)"> </text><text xml:space="preserve" font-family="HelveticaNeue-Light,Helvetica Neue" font-size="46.0" fill="#000000" transform="matrix(1.00, 0.00, -0.00, -1.00, 1010.7, 408.2)">-</text><text xml:space="preserve" font-family="HelveticaNeue-Light,Helvetica Neue" font-size="46.0" fill="#000000" transform="matrix(1.00, 0.00, -0.00, -1.00, 1027.7, 408.2)"> </text><text xml:space="preserve" font-family="HelveticaNeue-Light,Helvetica Neue" font-size="46.0" fill="#000000" transform="matrix(1.00, 0.00, -0.00, -1.00, 1040.5, 408.2)"> </text><text xml:space="preserve" font-family="HelveticaNeue-Light,Helvetica Neue" font-size="46.0" fill="#000000" transform="matrix(1.00, 0.00, -0.00, -1.00, 1053.3, 408.2)">C</text><text xml:space="preserve" font-family="HelveticaNeue-Light,Helvetica Neue" font-size="46.0" fill="#000000" transform="matrix(1.00, 0.00, -0.00, -1.00, 1085.7, 408.2)">o</text><text xml:space="preserve" font-family="HelveticaNeue-Light,Helvetica Neue" font-size="46.0" fill="#000000" transform="matrix(1.00, 0.00, -0.00, -1.00, 1111.3, 408.2)">d</text><text xml:space="preserve" font-family="HelveticaNeue-Light,Helvetica Neue" font-size="46.0" fill="#000000" transform="matrix(1.00, 0.00, -0.00, -1.00, 1137.7, 408.2)">e</text><text xml:space="preserve" font-family="HelveticaNeue-Light,Helvetica Neue" font-size="46.0" fill="#000000" transform="matrix(1.00, 0.00, -0.00, -1.00, 1161.5, 408.2)">D</text><text xml:space="preserve" font-family="HelveticaNeue-Light,Helvetica Neue" font-size="46.0" fill="#000000" transform="matrix(1.00, 0.00, -0.00, -1.00, 1193.1, 408.2)">a</text><text xml:space="preserve" font-family="HelveticaNeue-Light,Helvetica Neue" font-size="46.0" fill="#000000" transform="matrix(1.00, 0.00, -0.00, -1.00, 1216.9, 408.2)">y</text><text xml:space="preserve" font-family="HelveticaNeue-Light,Helvetica Neue" font-size="46.0" fill="#000000" transform="matrix(1.00, 0.00, -0.00, -1.00, 1238.2, 408.2)"> </text><text xml:space="preserve" font-family="HelveticaNeue-Light,Helvetica Neue" font-size="46.0" fill="#000000" transform="matrix(1.00, 0.00, -0.00, -1.00, 1251.0, 408.2)">W</text><text xml:space="preserve" font-family="HelveticaNeue-Light,Helvetica Neue" font-size="46.0" fill="#000000" transform="matrix(1.00, 0.00, -0.00, -1.00, 1291.9, 408.2)">o</text><text xml:space="preserve" font-family="HelveticaNeue-Light,Helvetica Neue" font-size="46.0" fill="#000000" transform="matrix(1.00, 0.00, -0.00, -1.00, 1317.5, 408.2)">r</text><text xml:space="preserve" font-family="HelveticaNeue-Light,Helvetica Neue" font-size="46.0" fill="#000000" transform="matrix(1.00, 0.00, -0.00, -1.00, 1332.0, 408.2)">k</text><text xml:space="preserve" font-family="HelveticaNeue-Light,Helvetica Neue" font-size="46.0" fill="#000000" transform="matrix(1.00, 0.00, -0.00, -1.00, 1355.0, 408.2)">s</text><text xml:space="preserve" font-family="HelveticaNeue-Light,Helvetica Neue" font-size="46.0" fill="#000000" transform="matrix(1.00, 0.00, -0.00, -1.00, 1377.1, 408.2)">h</text><text xml:space="preserve" font-family="HelveticaNeue-Light,Helvetica Neue" font-size="46.0" fill="#000000" transform="matrix(1.00, 0.00, -0.00, -1.00, 1401.8, 408.2)">o</text><text xml:space="preserve" font-family="HelveticaNeue-Light,Helvetica Neue" font-size="46.0" fill="#000000" transform="matrix(1.00, 0.00, -0.00, -1.00, 1427.4, 408.2)">p</text></g></svg>