<?xml version="1.0" encoding="UTF-8" standalone="no"?><svg xmlns="http://www.w3.org/2000/svg" xmlns:xlink="http://www.w3.org/1999/xlink" clip-rule="evenodd" stroke-miterlimit="10" viewBox="0 0 1920 1080"><desc>SVG generated by Keynote</desc><defs></defs><g transform="matrix(1.00, 0.00, -0.00, -1.00, 0.0, 1080.0)"><path d="M 0.0 1080.0 L 1920.0 1080.0 L 1920.0 0.0 L 0.0 0.0 Z M 0.0 1080.0 " fill="#FEFFFF"></path><image xlink:href="../../45D36621-484C-4026-80EC-FDBD73C2A2AB/assets/4FD83C0E37D7C6A50BBEB9033B100801.png" width="1926.00" height="117.00" transform="matrix(1.00, 0.00, -0.00, -1.00, -3.0, 109.1)" opacity="0.50"></image><path d="M 0.0 108.0 L 1920.0 108.0 L 1920.0 -3.0 L 0.0 -3.0 Z M -0.0 108.1 " fill="#000000"></path><image xlink:href="../../45D36621-484C-4026-80EC-FDBD73C2A2AB/assets/BF37858F8C0EE944DDC864159C745544.png" width="2003.00" height="461.00" transform="matrix(0.12, 0.00, -0.00, -0.12, 33.0, 81.0)"></image><g><clipPath id="clip0x6000018bd3a0"><path d="M 1689.7 28.6 L 1862.2 28.6 L 1862.2 76.6 L 1689.7 76.6 Z M 1689.7 28.6 "></path></clipPath><g clip-path="url(#clip0x6000018bd3a0)"><text xml:space="preserve" font-family="Helvetica-Light,Helvetica" font-size="28.0" fill="#FEFFFE" transform="matrix(1.00, 0.00, -0.00, -1.00, 1699.4, 42.0)">@</text><text xml:space="preserve" font-family="Helvetica-Light,Helvetica" font-size="28.0" fill="#FEFFFE" transform="matrix(1.00, 0.00, -0.00, -1.00, 1721.8, 42.0)">t</text><text xml:space="preserve" font-family="Helvetica-Light,Helvetica" font-size="28.0" fill="#FEFFFE" transform="matrix(1.00, 0.00, -0.00, -1.00, 1729.6, 42.0)">o</text><text xml:space="preserve" font-family="Helvetica-Light,Helvetica" font-size="28.0" fill="#FEFFFE" transform="matrix(1.00, 0.00, -0.00, -1.00, 1745.1, 42.0)">m</text><text xml:space="preserve" font-family="Helvetica-Light,Helvetica" font-size="28.0" fill="#FEFFFE" transform="matrix(1.00, 0.00, -0.00, -1.00, 1768.5, 42.0)">p</text><text xml:space="preserve" font-family="Helvetica-Light,Helvetica" font-size="28.0" fill="#FEFFFE" transform="matrix(1.00, 0.00, -0.00, -1.00, 1785.6, 42.0)">a</text><text xml:space="preserve" font-family="Helvetica-Light,Helvetica" font-size="28.0" fill="#FEFFFE" transform="matrix(1.00, 0.00, -0.00, -1.00, 1801.1, 42.0)">u</text><text xml:space="preserve" font-family="Helvetica-Light,Helvetica" font-size="28.0" fill="#FEFFFE" transform="matrix(1.00, 0.00, -0.00, -1.00, 1816.7, 42.0)">l</text><text xml:space="preserve" font-family="Helvetica-Light,Helvetica" font-size="28.0" fill="#FEFFFE" transform="matrix(1.00, 0.00, -0.00, -1.00, 1822.9, 42.0)">u</text><text xml:space="preserve" font-family="Helvetica-Light,Helvetica" font-size="28.0" fill="#FEFFFE" transform="matrix(1.00, 0.00, -0.00, -1.00, 1838.5, 42.0)">s</text></g></g><g><clipPath id="clip0x600001ca02a0"><path d="M 1630.6 30.1 L 1686.0 30.1 L 1686.0 75.1 L 1630.6 75.1 Z M 1630.6 30.1 "></path></clipPath><g clip-path="url(#clip0x600001ca02a0)"><image xlink:href="../../45D36621-484C-4026-80EC-FDBD73C2A2AB/assets/E681C0CCD05D9D5C97169BC7675B8667.png" width="1139.00" height="926.00" transform="matrix(0.05, 0.00, -0.00, -0.05, 1631.0, 75.0)"></image></g></g><text xml:space="preserve" font-family="Helvetica-Light,Helvetica" font-size="112.0" fill="#000000" transform="matrix(1.00, 0.00, -0.00, -1.00, 957.2, 547.8)">L</text><text xml:space="preserve" font-family="Helvetica-Light,Helvetica" font-size="112.0" fill="#000000" transform="matrix(1.00, 0.00, -0.00, -1.00, 1019.5, 547.8)">e</text><text xml:space="preserve" font-family="Helvetica-Light,Helvetica" font-size="112.0" fill="#000000" transform="matrix(1.00, 0.00, -0.00, -1.00, 1081.8, 547.8)">t</text><text xml:space="preserve" font-family="Helvetica-Light,Helvetica" font-size="112.0" fill="#000000" transform="matrix(1.00, 0.00, -0.00, -1.00, 1112.9, 547.8)">’</text><text xml:space="preserve" font-family="Helvetica-Light,Helvetica" font-size="112.0" fill="#000000" transform="matrix(1.00, 0.00, -0.00, -1.00, 1129.5, 547.8)">s</text><text xml:space="preserve" font-family="Helvetica-Light,Helvetica" font-size="112.0" fill="#000000" transform="matrix(1.00, 0.00, -0.00, -1.00, 1185.5, 547.8)"> </text><text xml:space="preserve" font-family="Helvetica-Light,Helvetica" font-size="112.0" fill="#000000" transform="matrix(1.00, 0.00, -0.00, -1.00, 1216.6, 547.8)">T</text><text xml:space="preserve" font-family="Helvetica-Light,Helvetica" font-size="112.0" fill="#000000" transform="matrix(1.00, 0.00, -0.00, -1.00, 1268.6, 547.8)">r</text><text xml:space="preserve" font-family="Helvetica-Light,Helvetica" font-size="112.0" fill="#000000" transform="matrix(1.00, 0.00, -0.00, -1.00, 1307.9, 547.8)">y</text><text xml:space="preserve" font-family="Helvetica-Light,Helvetica" font-size="112.0" fill="#000000" transform="matrix(1.00, 0.00, -0.00, -1.00, 1363.9, 547.8)"> </text><text xml:space="preserve" font-family="Helvetica-Light,Helvetica" font-size="112.0" fill="#000000" transform="matrix(1.00, 0.00, -0.00, -1.00, 1395.0, 547.8)">I</text><text xml:space="preserve" font-family="Helvetica-Light,Helvetica" font-size="112.0" fill="#000000" transform="matrix(1.00, 0.00, -0.00, -1.00, 1426.2, 547.8)">t</text><text xml:space="preserve" font-family="Helvetica-Light,Helvetica" font-size="112.0" fill="#000000" transform="matrix(1.00, 0.00, -0.00, -1.00, 1457.3, 547.8)">!</text><image xlink:href="C69BDD23C08441479ADD9A4D2A57157F.png" width="618.00" height="150.00" transform="matrix(1.00, 0.00, -0.00, -1.00, 299.3, 473.3)" opacity="0.75"></image><image xlink:href="BB867704AB31DC8B33459464402B8F7A.png" width="2000.00" height="2000.00" transform="matrix(0.19, 0.00, -0.00, -0.19, 419.0, 778.0)"></image></g></svg>